<svg width="48" height="48" viewBox="0 0 48 48" fill="none" xmlns="http://www.w3.org/2000/svg">
<path opacity="0.4" d="M24 44C35.0457 44 44 35.0457 44 24C44 12.9543 35.0457 4 24 4C12.9543 4 4 12.9543 4 24C4 35.0457 12.9543 44 24 44Z" fill="#E4E4E4"/>
<path d="M30.9999 22.4999H20.6199L24.0599 19.0599C24.6399 18.4799 24.6399 17.5199 24.0599 16.9399C23.4799 16.3599 22.5199 16.3599 21.9399 16.9399L15.9399 22.9399C15.3599 23.5199 15.3599 24.4799 15.9399 25.0599L21.9399 31.0599C22.2399 31.3599 22.6199 31.4999 22.9999 31.4999C23.3799 31.4999 23.7599 31.3599 24.0599 31.0599C24.6399 30.4799 24.6399 29.5199 24.0599 28.9399L20.6199 25.4999H30.9999C31.8199 25.4999 32.4999 24.8199 32.4999 23.9999C32.4999 23.1799 31.8199 22.4999 30.9999 22.4999Z" fill="#292D32"/>
</svg>
