<svg width="16" height="17" viewBox="0 0 16 17" fill="none" xmlns="http://www.w3.org/2000/svg">
<path d="M12.0007 5.27301C11.9607 5.26634 11.914 5.26634 11.874 5.27301C10.954 5.23968 10.2207 4.48634 10.2207 3.55301C10.2207 2.59968 10.9874 1.83301 11.9407 1.83301C12.894 1.83301 13.6607 2.60634 13.6607 3.55301C13.654 4.48634 12.9207 5.23968 12.0007 5.27301Z" stroke="#C8DFFF" stroke-linecap="round" stroke-linejoin="round"/>
<path d="M11.3149 10.1264C12.2283 10.2798 13.2349 10.1198 13.9416 9.64645C14.8816 9.01978 14.8816 7.99312 13.9416 7.36645C13.2283 6.89312 12.2083 6.73311 11.2949 6.89311" stroke="#C8DFFF" stroke-linecap="round" stroke-linejoin="round"/>
<path d="M3.98031 5.27301C4.02031 5.26634 4.06698 5.26634 4.10698 5.27301C5.02698 5.23968 5.76031 4.48634 5.76031 3.55301C5.76031 2.59968 4.99365 1.83301 4.04031 1.83301C3.08698 1.83301 2.32031 2.60634 2.32031 3.55301C2.32698 4.48634 3.06031 5.23968 3.98031 5.27301Z" stroke="#C8DFFF" stroke-linecap="round" stroke-linejoin="round"/>
<path d="M4.6676 10.1264C3.75427 10.2798 2.7476 10.1198 2.04094 9.64645C1.10094 9.01978 1.10094 7.99312 2.04094 7.36645C2.75427 6.89312 3.77427 6.73311 4.6876 6.89311" stroke="#C8DFFF" stroke-linecap="round" stroke-linejoin="round"/>
<path d="M8.0007 10.2535C7.9607 10.2468 7.91404 10.2468 7.87404 10.2535C6.95404 10.2201 6.2207 9.46681 6.2207 8.53348C6.2207 7.58014 6.98737 6.81348 7.9407 6.81348C8.89403 6.81348 9.6607 7.58681 9.6607 8.53348C9.65404 9.46681 8.9207 10.2268 8.0007 10.2535Z" stroke="#C8DFFF" stroke-linecap="round" stroke-linejoin="round"/>
<path d="M6.06047 12.3532C5.12047 12.9799 5.12047 14.0066 6.06047 14.6332C7.12714 15.3466 8.8738 15.3466 9.94047 14.6332C10.8805 14.0066 10.8805 12.9799 9.94047 12.3532C8.88047 11.6466 7.12714 11.6466 6.06047 12.3532Z" stroke="#C8DFFF" stroke-linecap="round" stroke-linejoin="round"/>
</svg>
