<svg width="16" height="17" viewBox="0 0 16 17" fill="none" xmlns="http://www.w3.org/2000/svg">
<path d="M8 4.20703H14.6667" stroke="#C8DFFF" stroke-miterlimit="10" stroke-linecap="round" stroke-linejoin="round"/>
<path d="M9.48 1.83301H13.1867C14.3733 1.83301 14.6667 2.12634 14.6667 3.29968V6.03968C14.6667 7.21301 14.3733 7.50634 13.1867 7.50634H9.48C8.29333 7.50634 8 7.21301 8 6.03968V3.29968C8 2.12634 8.29333 1.83301 9.48 1.83301Z" stroke="#C8DFFF" stroke-linecap="round" stroke-linejoin="round"/>
<path d="M1.33398 11.873H8.00065" stroke="#C8DFFF" stroke-miterlimit="10" stroke-linecap="round" stroke-linejoin="round"/>
<path d="M2.81399 9.5H6.52065C7.70732 9.5 8.00065 9.79333 8.00065 10.9667V13.7067C8.00065 14.88 7.70732 15.1733 6.52065 15.1733H2.81399C1.62732 15.1733 1.33398 14.88 1.33398 13.7067V10.9667C1.33398 9.79333 1.62732 9.5 2.81399 9.5Z" stroke="#C8DFFF" stroke-linecap="round" stroke-linejoin="round"/>
<path d="M14.6667 10.5C14.6667 13.08 12.58 15.1667 10 15.1667L10.7 14" stroke="#C8DFFF" stroke-linecap="round" stroke-linejoin="round"/>
<path d="M1.33398 6.49967C1.33398 3.91967 3.42065 1.83301 6.00065 1.83301L5.30066 2.99967" stroke="#C8DFFF" stroke-linecap="round" stroke-linejoin="round"/>
</svg>
