<svg width="20" height="20" viewBox="0 0 20 20" fill="none" xmlns="http://www.w3.org/2000/svg">
<path d="M16.1168 12.075L15.2834 10.6916C15.1084 10.3833 14.9501 9.79996 14.9501 9.45829V7.34996C14.9501 5.39163 13.8001 3.69996 12.1418 2.90829C11.7084 2.14163 10.9084 1.66663 9.99178 1.66663C9.08345 1.66663 8.26678 2.15829 7.83345 2.93329C6.20845 3.74163 5.08345 5.41663 5.08345 7.34996V9.45829C5.08345 9.79996 4.92512 10.3833 4.75012 10.6833L3.90845 12.075C3.57512 12.6333 3.50012 13.25 3.70845 13.8166C3.90845 14.375 4.38345 14.8083 5.00012 15.0166C6.61678 15.5666 8.31678 15.8333 10.0168 15.8333C11.7168 15.8333 13.4168 15.5666 15.0335 15.025C15.6168 14.8333 16.0668 14.3916 16.2835 13.8166C16.5001 13.2416 16.4418 12.6083 16.1168 12.075Z" fill="#1E1E1E"/>
<path d="M12.3582 16.675C12.0082 17.6416 11.0832 18.3333 9.9999 18.3333C9.34157 18.3333 8.69157 18.0666 8.23324 17.5916C7.96657 17.3416 7.76657 17.0083 7.6499 16.6666C7.75824 16.6833 7.86657 16.6916 7.98324 16.7083C8.1749 16.7333 8.3749 16.7583 8.5749 16.775C9.0499 16.8166 9.53324 16.8416 10.0166 16.8416C10.4916 16.8416 10.9666 16.8166 11.4332 16.775C11.6082 16.7583 11.7832 16.75 11.9499 16.725C12.0832 16.7083 12.2166 16.6916 12.3582 16.675Z" fill="#1E1E1E"/>
</svg>
