<svg width="16" height="17" viewBox="0 0 16 17" fill="none" xmlns="http://www.w3.org/2000/svg">
<path d="M5.87427 1.83301L3.46094 4.25301" stroke="#C8DFFF" stroke-miterlimit="10" stroke-linecap="round" stroke-linejoin="round"/>
<path d="M10.127 1.83301L12.5403 4.25301" stroke="#C8DFFF" stroke-miterlimit="10" stroke-linecap="round" stroke-linejoin="round"/>
<path d="M1.33398 5.73372C1.33398 4.50039 1.99398 4.40039 2.81398 4.40039H13.1873C14.0073 4.40039 14.6673 4.50039 14.6673 5.73372C14.6673 7.16706 14.0073 7.06706 13.1873 7.06706H2.81398C1.99398 7.06706 1.33398 7.16706 1.33398 5.73372Z" stroke="#C8DFFF"/>
<path d="M6.50586 9.83301V12.1997" stroke="#C8DFFF" stroke-linecap="round"/>
<path d="M9.57422 9.83301V12.1997" stroke="#C8DFFF" stroke-linecap="round"/>
<path d="M2.33398 7.16699L3.27398 12.927C3.48732 14.2203 4.00065 15.167 5.90732 15.167H9.92732C12.0007 15.167 12.3073 14.2603 12.5473 13.007L13.6673 7.16699" stroke="#C8DFFF" stroke-linecap="round"/>
</svg>
