<svg width="16" height="17" viewBox="0 0 16 17" fill="none" xmlns="http://www.w3.org/2000/svg">
<path d="M1.33398 6.49967V4.83301C1.33398 3.17301 2.67398 1.83301 4.33398 1.83301H6.00065" stroke="#C8DFFF" stroke-linecap="round" stroke-linejoin="round"/>
<path d="M10 1.83301H11.6667C13.3267 1.83301 14.6667 3.17301 14.6667 4.83301V6.49967" stroke="#C8DFFF" stroke-linecap="round" stroke-linejoin="round"/>
<path d="M14.666 11.167V12.167C14.666 13.827 13.326 15.167 11.666 15.167H10.666" stroke="#C8DFFF" stroke-linecap="round" stroke-linejoin="round"/>
<path d="M6.00065 15.1667H4.33398C2.67398 15.1667 1.33398 13.8267 1.33398 12.1667V10.5" stroke="#C8DFFF" stroke-linecap="round" stroke-linejoin="round"/>
<path d="M11.3327 6.83301V10.1663C11.3327 11.4997 10.666 12.1663 9.33268 12.1663H6.66602C5.33268 12.1663 4.66602 11.4997 4.66602 10.1663V6.83301C4.66602 5.49967 5.33268 4.83301 6.66602 4.83301H9.33268C10.666 4.83301 11.3327 5.49967 11.3327 6.83301Z" stroke="#C8DFFF" stroke-linecap="round" stroke-linejoin="round"/>
<path d="M12.6673 8.5H3.33398" stroke="#C8DFFF" stroke-linecap="round" stroke-linejoin="round"/>
</svg>
