<svg width="16" height="17" viewBox="0 0 16 17" fill="none" xmlns="http://www.w3.org/2000/svg">
<path d="M3.33398 7.16634H4.66732C6.00065 7.16634 6.66732 6.49967 6.66732 5.16634V3.83301C6.66732 2.49967 6.00065 1.83301 4.66732 1.83301H3.33398C2.00065 1.83301 1.33398 2.49967 1.33398 3.83301V5.16634C1.33398 6.49967 2.00065 7.16634 3.33398 7.16634Z" stroke="#C8DFFF" stroke-miterlimit="10" stroke-linecap="round" stroke-linejoin="round"/>
<path d="M11.334 7.16634H12.6673C14.0007 7.16634 14.6673 6.49967 14.6673 5.16634V3.83301C14.6673 2.49967 14.0007 1.83301 12.6673 1.83301H11.334C10.0007 1.83301 9.33398 2.49967 9.33398 3.83301V5.16634C9.33398 6.49967 10.0007 7.16634 11.334 7.16634Z" stroke="#C8DFFF" stroke-miterlimit="10" stroke-linecap="round" stroke-linejoin="round"/>
<path d="M11.334 15.1663H12.6673C14.0007 15.1663 14.6673 14.4997 14.6673 13.1663V11.833C14.6673 10.4997 14.0007 9.83301 12.6673 9.83301H11.334C10.0007 9.83301 9.33398 10.4997 9.33398 11.833V13.1663C9.33398 14.4997 10.0007 15.1663 11.334 15.1663Z" stroke="#C8DFFF" stroke-miterlimit="10" stroke-linecap="round" stroke-linejoin="round"/>
<path d="M3.33398 15.1663H4.66732C6.00065 15.1663 6.66732 14.4997 6.66732 13.1663V11.833C6.66732 10.4997 6.00065 9.83301 4.66732 9.83301H3.33398C2.00065 9.83301 1.33398 10.4997 1.33398 11.833V13.1663C1.33398 14.4997 2.00065 15.1663 3.33398 15.1663Z" stroke="#C8DFFF" stroke-miterlimit="10" stroke-linecap="round" stroke-linejoin="round"/>
</svg>
