<svg width="16" height="17" viewBox="0 0 16 17" fill="none" xmlns="http://www.w3.org/2000/svg">
<path d="M6.10573 7.74634C6.03906 7.73967 5.95906 7.73967 5.88573 7.74634C4.29906 7.69301 3.03906 6.39301 3.03906 4.79301C3.03906 3.15967 4.35906 1.83301 5.99906 1.83301C7.6324 1.83301 8.95906 3.15967 8.95906 4.79301C8.95239 6.39301 7.6924 7.69301 6.10573 7.74634Z" stroke="#C8DFFF" stroke-linecap="round" stroke-linejoin="round"/>
<path d="M10.9402 3.16699C12.2335 3.16699 13.2735 4.21366 13.2735 5.50033C13.2735 6.76033 12.2735 7.78699 11.0268 7.83366C10.9735 7.82699 10.9135 7.82699 10.8535 7.83366" stroke="#C8DFFF" stroke-linecap="round" stroke-linejoin="round"/>
<path d="M2.7725 10.207C1.15917 11.287 1.15917 13.047 2.7725 14.1203C4.60583 15.347 7.6125 15.347 9.44583 14.1203C11.0592 13.0403 11.0592 11.2803 9.44583 10.207C7.61917 8.98699 4.6125 8.98699 2.7725 10.207Z" stroke="#C8DFFF" stroke-linecap="round" stroke-linejoin="round"/>
<path d="M12.2266 13.833C12.7066 13.733 13.1599 13.5397 13.5332 13.253C14.5732 12.473 14.5732 11.1863 13.5332 10.4063C13.1666 10.1263 12.7199 9.93967 12.2466 9.83301" stroke="#C8DFFF" stroke-linecap="round" stroke-linejoin="round"/>
</svg>
