<svg width="16" height="17" viewBox="0 0 16 17" fill="none" xmlns="http://www.w3.org/2000/svg">
<path d="M11.334 14.1663H4.66732C2.66732 14.1663 1.33398 13.1663 1.33398 10.833V6.16634C1.33398 3.83301 2.66732 2.83301 4.66732 2.83301H11.334C13.334 2.83301 14.6673 3.83301 14.6673 6.16634V10.833C14.6673 13.1663 13.334 14.1663 11.334 14.1663Z" stroke="#C8DFFF" stroke-miterlimit="10" stroke-linecap="round" stroke-linejoin="round"/>
<path d="M8 10.5C9.10457 10.5 10 9.60457 10 8.5C10 7.39543 9.10457 6.5 8 6.5C6.89543 6.5 6 7.39543 6 8.5C6 9.60457 6.89543 10.5 8 10.5Z" stroke="#C8DFFF" stroke-miterlimit="10" stroke-linecap="round" stroke-linejoin="round"/>
<path d="M3.66602 6.83301V10.1663" stroke="#C8DFFF" stroke-miterlimit="10" stroke-linecap="round" stroke-linejoin="round"/>
<path d="M12.334 6.83301V10.1663" stroke="#C8DFFF" stroke-miterlimit="10" stroke-linecap="round" stroke-linejoin="round"/>
</svg>
