<svg width="16" height="17" viewBox="0 0 16 17" fill="none" xmlns="http://www.w3.org/2000/svg">
<path d="M6.33398 9.66682C6.33398 10.3135 6.83399 10.8335 7.44733 10.8335H8.70064C9.23398 10.8335 9.66732 10.3802 9.66732 9.81349C9.66732 9.20682 9.40066 8.98682 9.00732 8.84682L7.00065 8.14682C6.60732 8.00682 6.34066 7.79349 6.34066 7.18016C6.34066 6.62016 6.77398 6.16016 7.30731 6.16016H8.56065C9.17398 6.16016 9.67399 6.68016 9.67399 7.32682" stroke="#C8DFFF" stroke-linecap="round" stroke-linejoin="round"/>
<path d="M8 5.5V11.5" stroke="#C8DFFF" stroke-linecap="round" stroke-linejoin="round"/>
<path d="M14.6673 8.49967C14.6673 12.1797 11.6807 15.1663 8.00065 15.1663C4.32065 15.1663 1.33398 12.1797 1.33398 8.49967C1.33398 4.81967 4.32065 1.83301 8.00065 1.83301" stroke="#C8DFFF" stroke-linecap="round" stroke-linejoin="round"/>
<path d="M11.334 2.5V5.16667H14.0007" stroke="#C8DFFF" stroke-linecap="round" stroke-linejoin="round"/>
<path d="M14.6673 1.83301L11.334 5.16634" stroke="#C8DFFF" stroke-linecap="round" stroke-linejoin="round"/>
</svg>
