<svg width="16" height="16" viewBox="0 0 16 16" fill="none" xmlns="http://www.w3.org/2000/svg">
<path d="M14.075 5.91495C12.7175 5.91495 12.1625 4.95495 12.8375 3.77745C13.2275 3.09495 12.995 2.22495 12.3125 1.83495L11.015 1.09245C10.4225 0.739952 9.6575 0.949952 9.305 1.54245L9.2225 1.68495C8.5475 2.86245 7.4375 2.86245 6.755 1.68495L6.6725 1.54245C6.335 0.949952 5.57 0.739952 4.9775 1.09245L3.68 1.83495C2.9975 2.22495 2.765 3.10245 3.155 3.78495C3.8375 4.95495 3.2825 5.91495 1.925 5.91495C1.145 5.91495 0.5 6.55245 0.5 7.33995V8.65995C0.5 9.43995 1.1375 10.085 1.925 10.085C3.2825 10.085 3.8375 11.045 3.155 12.2225C2.765 12.905 2.9975 13.775 3.68 14.165L4.9775 14.9075C5.57 15.26 6.335 15.05 6.6875 14.4575L6.77 14.315C7.445 13.1375 8.555 13.1375 9.2375 14.315L9.32 14.4575C9.6725 15.05 10.4375 15.26 11.03 14.9075L12.3275 14.165C13.01 13.775 13.2425 12.8975 12.8525 12.2225C12.17 11.045 12.725 10.085 14.0825 10.085C14.8625 10.085 15.5075 9.44745 15.5075 8.65995V7.33995C15.5 6.55995 14.8625 5.91495 14.075 5.91495ZM8 10.4375C6.6575 10.4375 5.5625 9.34245 5.5625 7.99995C5.5625 6.65745 6.6575 5.56245 8 5.56245C9.3425 5.56245 10.4375 6.65745 10.4375 7.99995C10.4375 9.34245 9.3425 10.4375 8 10.4375Z" fill="#828282"/>
</svg>
