<svg width="16" height="17" viewBox="0 0 16 17" fill="none" xmlns="http://www.w3.org/2000/svg">
<g clip-path="url(#clip0_54_2855)">
<path d="M5.66666 7.20833C5.66666 7.57567 5.752 7.92367 5.904 8.233C5.57733 8.65167 5.374 9.171 5.34666 9.737C4.71933 9.07833 4.33333 8.18767 4.33333 7.209C4.33333 4.935 6.41466 3.13767 8.77267 3.62167C10.1607 3.907 11.2853 5.025 11.5813 6.411C11.6707 6.82967 11.6873 7.23967 11.642 7.63167C11.6033 7.96367 11.312 8.209 10.9773 8.209H10.9473C10.5527 8.209 10.2753 7.85767 10.3187 7.46567C10.348 7.20233 10.3327 6.92567 10.2653 6.64367C10.0667 5.80833 9.38533 5.13167 8.54867 4.939C7.02466 4.589 5.666 5.74367 5.666 7.209L5.66666 7.20833ZM3.07333 6.345C3.256 5.283 3.77533 4.315 4.58066 3.55967C5.6 2.60433 6.93467 2.13233 8.334 2.219C10.9693 2.38967 13.03 4.69833 12.9993 7.46233C12.9867 8.61967 12.0173 9.541 10.8607 9.541H9.25667C9.094 8.98833 8.58867 8.58167 7.98333 8.58167C7.24667 8.58167 6.65 9.17833 6.65 9.915C6.65 10.6517 7.24667 11.2483 7.98333 11.2483C8.342 11.2483 8.66667 11.105 8.906 10.8743H10.8607C12.74 10.8743 14.306 9.37767 14.3327 7.499C14.382 4.01833 11.7673 1.105 8.42 0.889001C6.644 0.773667 4.95933 1.377 3.66933 2.58767C2.67 3.52433 2.00533 4.76433 1.766 6.09833C1.69333 6.50367 2.014 6.87567 2.42533 6.87567C2.74 6.87567 3.02066 6.65633 3.07333 6.34567V6.345ZM8 12.2083C5.53666 12.2083 3.40533 13.7363 2.69666 16.0097C2.58666 16.361 2.78333 16.735 3.13466 16.845C3.48533 16.951 3.85933 16.7577 3.96933 16.407C4.49533 14.7203 6.152 13.5417 7.99933 13.5417C9.84666 13.5417 11.504 14.7203 12.0293 16.407C12.1187 16.6923 12.3813 16.875 12.666 16.875C12.732 16.875 12.798 16.865 12.8647 16.845C13.216 16.735 13.412 16.361 13.3027 16.0097C12.594 13.7363 10.4627 12.2083 7.99933 12.2083H8Z" fill="#136DEB"/>
</g>
<defs>
<clipPath id="clip0_54_2855">
<rect width="16" height="16" fill="white" transform="translate(0 0.875)"/>
</clipPath>
</defs>
</svg>
