<svg width="16" height="17" viewBox="0 0 16 17" fill="none" xmlns="http://www.w3.org/2000/svg">
<path d="M1.33398 7.83366V6.50033C1.33398 4.16699 2.66732 3.16699 4.66732 3.16699H11.334C13.334 3.16699 14.6673 4.16699 14.6673 6.50033V10.5003C14.6673 12.8337 13.334 13.8337 11.334 13.8337H8.00065" stroke="#C8DFFF" stroke-miterlimit="10" stroke-linecap="round" stroke-linejoin="round"/>
<path d="M8.00065 10.1663C8.92113 10.1663 9.66732 9.42015 9.66732 8.49967C9.66732 7.5792 8.92113 6.83301 8.00065 6.83301C7.08018 6.83301 6.33398 7.5792 6.33398 8.49967C6.33398 9.42015 7.08018 10.1663 8.00065 10.1663Z" stroke="#C8DFFF" stroke-miterlimit="10" stroke-linecap="round" stroke-linejoin="round"/>
<path d="M12.334 6.83301V10.1663" stroke="#C8DFFF" stroke-miterlimit="10" stroke-linecap="round" stroke-linejoin="round"/>
<path d="M1.33398 10.833H4.894C5.32067 10.833 5.66732 11.1797 5.66732 11.6063V12.4597" stroke="#C8DFFF" stroke-miterlimit="10" stroke-linecap="round" stroke-linejoin="round"/>
<path d="M2.1473 10.0195L1.33398 10.8328L2.1473 11.6462" stroke="#C8DFFF" stroke-miterlimit="10" stroke-linecap="round" stroke-linejoin="round"/>
<path d="M5.66732 14.3532H2.1073C1.68063 14.3532 1.33398 14.0065 1.33398 13.5799V12.7266" stroke="#C8DFFF" stroke-miterlimit="10" stroke-linecap="round" stroke-linejoin="round"/>
<path d="M4.85547 15.1667L5.66878 14.3534L4.85547 13.54" stroke="#C8DFFF" stroke-miterlimit="10" stroke-linecap="round" stroke-linejoin="round"/>
</svg>
