<svg width="16" height="17" viewBox="0 0 16 17" fill="none" xmlns="http://www.w3.org/2000/svg">
<path d="M14.666 4.49967V6.11301C14.666 7.16634 13.9993 7.83301 12.946 7.83301H10.666V3.17301C10.666 2.43301 11.2727 1.83301 12.0127 1.83301C12.7393 1.83967 13.406 2.13301 13.886 2.61301C14.366 3.09967 14.666 3.76634 14.666 4.49967Z" stroke="#C8DFFF" stroke-width="1.2" stroke-miterlimit="10" stroke-linecap="round" stroke-linejoin="round"/>
<path d="M1.33398 5.16634V14.4997C1.33398 15.053 1.96065 15.3663 2.40065 15.033L3.54065 14.1797C3.80732 13.9797 4.18065 14.0063 4.42065 14.2463L5.52732 15.3597C5.78732 15.6197 6.21398 15.6197 6.47398 15.3597L7.59398 14.2397C7.82732 14.0063 8.20065 13.9797 8.46065 14.1797L9.60065 15.033C10.0407 15.3597 10.6673 15.0463 10.6673 14.4997V3.16634C10.6673 2.43301 11.2673 1.83301 12.0007 1.83301H4.66732H4.00065C2.00065 1.83301 1.33398 3.02634 1.33398 4.49967V5.16634Z" stroke="#C8DFFF" stroke-width="1.2" stroke-miterlimit="10" stroke-linecap="round" stroke-linejoin="round"/>
<path d="M6 9.17285H8" stroke="#C8DFFF" stroke-width="1.2" stroke-linecap="round" stroke-linejoin="round"/>
<path d="M6 6.50684H8" stroke="#C8DFFF" stroke-width="1.2" stroke-linecap="round" stroke-linejoin="round"/>
<path d="M3.99609 9.16699H4.00208" stroke="#C8DFFF" stroke-width="1.2" stroke-linecap="round" stroke-linejoin="round"/>
<path d="M3.99609 6.5H4.00208" stroke="#C8DFFF" stroke-width="1.2" stroke-linecap="round" stroke-linejoin="round"/>
</svg>
